<svg xmlns="http://www.w3.org/2000/svg" xmlns:xlink="http://www.w3.org/1999/xlink" width="32.828" height="35.813" viewBox="0 0 32.828 35.813">
  <defs>
    <linearGradient id="linear-gradient" x1="1" x2="0" y2="1" gradientUnits="objectBoundingBox">
      <stop offset="0" stop-color="#1d9bf0"/>
      <stop offset="1" stop-color="#32599c"/>
    </linearGradient>
  </defs>
  <path id="vest" d="M32.515,15.674a7.993,7.993,0,0,1-1.671-3.736V7.558A7.424,7.424,0,0,0,24.214.143,21.417,21.417,0,0,0,21.891,0H12.938C11.905,0,10.7.134,10.614.143a7.424,7.424,0,0,0-6.63,7.415v4.38a7.993,7.993,0,0,1-1.671,3.736A7.388,7.388,0,0,0,1,19.9v8.455a7.469,7.469,0,0,0,7.461,7.461H26.367a7.469,7.469,0,0,0,7.461-7.461V19.9A7.384,7.384,0,0,0,32.515,15.674Zm-15.1-2.134L13.575,2.984h7.677L17.413,13.54ZM3.984,28.352V25.367H9.953a1.492,1.492,0,0,0,0-2.984H3.984V19.9a4.435,4.435,0,0,1,.782-2.526c1.461-2.114,2.2-3.942,2.2-5.433V7.558a4.451,4.451,0,0,1,3.505-4.374l5.448,14.983V32.828H8.461A4.482,4.482,0,0,1,3.984,28.352Zm22.383,4.477H18.906V18.168L24.354,3.184A4.452,4.452,0,0,1,27.86,7.558v4.38c0,1.491.74,3.319,2.2,5.433a4.428,4.428,0,0,1,.782,2.526v2.486H24.875a1.492,1.492,0,0,0,0,2.984h5.969v2.984A4.482,4.482,0,0,1,26.367,32.828Z" transform="translate(-1)" fill="url(#linear-gradient)"/>
</svg>
